<svg id="visual" viewBox="0 0 900 600" width="900" height="600" xmlns="http://www.w3.org/2000/svg" xmlns:xlink="http://www.w3.org/1999/xlink" version="1.1"><rect x="0" y="0" width="900" height="600" fill="#fff"></rect><defs><linearGradient id="grad1_0" x1="33.3%" y1="0%" x2="100%" y2="100%"><stop offset="20%" stop-color="#01963d" stop-opacity="1"></stop><stop offset="80%" stop-color="#01963d" stop-opacity="1"></stop></linearGradient></defs><defs><linearGradient id="grad1_1" x1="33.3%" y1="0%" x2="100%" y2="100%"><stop offset="20%" stop-color="#01963d" stop-opacity="1"></stop><stop offset="80%" stop-color="#72ba7b" stop-opacity="1"></stop></linearGradient></defs><defs><linearGradient id="grad1_2" x1="33.3%" y1="0%" x2="100%" y2="100%"><stop offset="20%" stop-color="#b9ddbc" stop-opacity="1"></stop><stop offset="80%" stop-color="#72ba7b" stop-opacity="1"></stop></linearGradient></defs><defs><linearGradient id="grad1_3" x1="33.3%" y1="0%" x2="100%" y2="100%"><stop offset="20%" stop-color="#b9ddbc" stop-opacity="1"></stop><stop offset="80%" stop-color="#ffffff" stop-opacity="1"></stop></linearGradient></defs><defs><linearGradient id="grad2_0" x1="0%" y1="0%" x2="66.7%" y2="100%"><stop offset="20%" stop-color="#01963d" stop-opacity="1"></stop><stop offset="80%" stop-color="#01963d" stop-opacity="1"></stop></linearGradient></defs><defs><linearGradient id="grad2_1" x1="0%" y1="0%" x2="66.7%" y2="100%"><stop offset="20%" stop-color="#72ba7b" stop-opacity="1"></stop><stop offset="80%" stop-color="#01963d" stop-opacity="1"></stop></linearGradient></defs><defs><linearGradient id="grad2_2" x1="0%" y1="0%" x2="66.7%" y2="100%"><stop offset="20%" stop-color="#72ba7b" stop-opacity="1"></stop><stop offset="80%" stop-color="#b9ddbc" stop-opacity="1"></stop></linearGradient></defs><defs><linearGradient id="grad2_3" x1="0%" y1="0%" x2="66.7%" y2="100%"><stop offset="20%" stop-color="#ffffff" stop-opacity="1"></stop><stop offset="80%" stop-color="#b9ddbc" stop-opacity="1"></stop></linearGradient></defs><g transform="translate(900, 0)"><path d="M0 324.5C-28.1 298.2 -56.2 272 -82.5 253.9C-108.8 235.9 -133.2 226.1 -153.4 211.2C-173.6 196.2 -189.6 176.2 -218.4 158.7C-247.2 141.2 -288.8 126.3 -308.6 100.3C-328.4 74.3 -326.5 37.1 -324.5 0L0 0Z" fill="#dceedd"></path><path d="M0 243.4C-21.1 223.7 -42.2 204 -61.9 190.4C-81.6 176.9 -99.9 169.6 -115.1 158.4C-130.2 147.2 -142.2 132.1 -163.8 119C-185.4 105.9 -216.6 94.7 -231.5 75.2C-246.3 55.7 -244.8 27.8 -243.4 0L0 0Z" fill="#96cb9b"></path><path d="M0 162.2C-14.1 149.1 -28.1 136 -41.3 127C-54.4 117.9 -66.6 113 -76.7 105.6C-86.8 98.1 -94.8 88.1 -109.2 79.4C-123.6 70.6 -144.4 63.1 -154.3 50.1C-164.2 37.1 -163.2 18.6 -162.2 0L0 0Z" fill="#4aa85c"></path><path d="M0 81.1C-7 74.6 -14.1 68 -20.6 63.5C-27.2 59 -33.3 56.5 -38.4 52.8C-43.4 49.1 -47.4 44 -54.6 39.7C-61.8 35.3 -72.2 31.6 -77.2 25.1C-82.1 18.6 -81.6 9.3 -81.1 0L0 0Z" fill="#01963d"></path></g><g transform="translate(0, 600)"><path d="M0 -324.5C23.9 -290.9 47.9 -257.2 81.9 -252C115.9 -246.8 159.9 -270 190.7 -262.5C221.6 -255 239.2 -216.8 253.2 -184C267.3 -151.1 277.8 -123.7 289.1 -93.9C300.4 -64.2 312.5 -32.1 324.5 0L0 0Z" fill="#dceedd"></path><path d="M0 -243.4C18 -218.2 35.9 -192.9 61.4 -189C86.9 -185.1 119.9 -202.5 143.1 -196.9C166.2 -191.3 179.4 -162.6 189.9 -138C200.5 -113.4 208.4 -92.8 216.8 -70.5C225.3 -48.1 234.3 -24.1 243.4 0L0 0Z" fill="#96cb9b"></path><path d="M0 -162.2C12 -145.4 23.9 -128.6 40.9 -126C57.9 -123.4 80 -135 95.4 -131.3C110.8 -127.5 119.6 -108.4 126.6 -92C133.6 -75.6 138.9 -61.9 144.6 -47C150.2 -32.1 156.2 -16 162.2 0L0 0Z" fill="#4aa85c"></path><path d="M0 -81.1C6 -72.7 12 -64.3 20.5 -63C29 -61.7 40 -67.5 47.7 -65.6C55.4 -63.8 59.8 -54.2 63.3 -46C66.8 -37.8 69.5 -30.9 72.3 -23.5C75.1 -16 78.1 -8 81.1 0L0 0Z" fill="#01963d"></path></g></svg>